PathFileType	4	(X/Y/Z)	c:\Git\powerlifing_model_clean\simulations\HC835B\Session1\HC835B_OGR_0001\marker_experimental.trc
DataRate	CameraRate	NumFrames	NumMarkers	Units	OrigDataRate	OrigDataStartFrame	OrigNumFrames
240.000000	240.000000	5	38	mm	240.000000	0	213
Frame#	Time	RPSI			LPSI			RASI			LASI			RTH1			RTH2			RTH3			RTH4			RSK1			RSK2			RSK3			RSK4			RCAL1			RCAL2			RCAL3			RST			RPT			RTN			RFMB			RSMB			RVMB			RFMH			RSMH			RVMH			RPM			LTH1			LTH2			LTH3			LTH4			LSK1			LSK2			LSK3			LSK4			LCAL1			LCAL2			LCAL3			LFMH			LVMH			
		X1	Y1	Z1	X2	Y2	Z2	X3	Y3	Z3	X4	Y4	Z4	X5	Y5	Z5	X6	Y6	Z6	X7	Y7	Z7	X8	Y8	Z8	X9	Y9	Z9	X10	Y10	Z10	X11	Y11	Z11	X12	Y12	Z12	X13	Y13	Z13	X14	Y14	Z14	X15	Y15	Z15	X16	Y16	Z16	X17	Y17	Z17	X18	Y18	Z18	X19	Y19	Z19	X20	Y20	Z20	X21	Y21	Z21	X22	Y22	Z22	X23	Y23	Z23	X24	Y24	Z24	X25	Y25	Z25	X26	Y26	Z26	X27	Y27	Z27	X28	Y28	Z28	X29	Y29	Z29	X30	Y30	Z30	X31	Y31	Z31	X32	Y32	Z32	X33	Y33	Z33	X34	Y34	Z34	X35	Y35	Z35	X36	Y36	Z36	X37	Y37	Z37	X38	Y38	Z38	

1	0	519.4451904296876	1216.928466796875	337.6358642578126	408.9815368652345	1215.909545898438	331.4787292480469	593.0646972656251	1146.9765625	156.1942291259766	367.7313232421876	1119.81396484375	142.9464721679688	662.6239624023439	864.4221801757815	167.1850128173828	646.9176025390626	871.794372558594	108.2965850830078	651.4240722656251	794.4920654296877	120.5141296386719	624.9683227539064	799.8220825195315	68.32581329345705	587.6148681640626	349.3487548828126	113.3863525390625	599.5048828125001	343.0681152343751	52.94728851318361	582.8681030273439	296.0923461914063	89.16153717041017	581.8607788085939	291.8544311523438	29.27185440063477	508.5667114257814	140.7434692382813	111.5943069458008	469.5551757812501	115.190185546875	91.50305938720705	529.7369995117189	97.13031005859378	103.8676528930664	475.0640563964845	144.0884094238282	25.02124214172364	566.3554077148439	109.2496490478516	52.14738082885744	501.5801391601564	164.8011779785157	-22.13314819335938	505.9832153320314	150.4264068603516	-54.89733123779298	559.2726440429689	161.3207244873047	-54.16847991943361	577.0188598632814	87.2081985473633	5.645992755889893	504.5951232910157	128.0657196044922	-112.8309020996094	561.7761840820314	131.682373046875	-116.9344635009766	600.1532592773439	85.5326385498047	-70.37451934814455	560.1699829101564	138.2271881103516	-171.9587554931641	300.3887329101563	869.7698974609377	343.4345397949219	312.8549499511719	834.4353637695315	295.5639343261719	313.5819702148438	787.1801757812502	361.2968139648438	339.1203308105469	754.8456420898439	316.7864074707032	352.8136596679688	500.873260498047	715.0221557617189	348.8411865234376	451.433319091797	694.0380249023439	355.1528015136719	453.5517883300782	742.9611816406251	368.1971740722657	402.8852539062501	718.7543945312501	420.8707580566407	417.5242614746095	867.0784912109377	399.755096435547	402.7558593750001	907.4127197265627	457.4317016601564	405.0639038085939	895.060729980469	478.1440734863282	198.454574584961	826.3331298828127	373.6442260742188	214.005599975586	877.0159301757815	
2	0.004166666666666667	519.6849975585939	1216.213134765625	323.5265197753907	409.1736145019532	1215.33447265625	317.2812194824219	593.1725463867189	1145.417724609375	142.3644256591797	367.4300231933594	1119.864135742188	128.804443359375	662.9187011718751	861.5736083984377	155.9708251953125	646.5902709960939	868.2734985351565	97.139762878418	651.2383422851564	791.055603027344	110.1660690307617	624.3138427734376	795.8127441406252	58.12070083618165	588.0946044921876	346.0508422851563	96.13520050048831	599.2062377929689	341.2491455078126	35.4214096069336	583.0952148437501	293.5128784179688	70.50927734375001	581.4115600585939	290.6256713867188	10.73973178863526	508.6194458007814	137.3368225097657	89.71073150634767	469.2393798828126	112.6730499267578	69.00669860839845	529.2644042968751	93.62660217285158	80.84597778320314	475.2781982421876	142.859130859375	3.239058017730714	565.9976806640626	106.6353454589844	29.41390800476075	501.5052795410157	164.9029235839844	-43.3651466369629	505.8828125000001	150.9055480957032	-76.59082031250001	559.3792724609376	161.4666442871094	-75.61529541015626	576.4033813476564	85.63641357421876	-17.6159839630127	504.259246826172	130.0090484619141	-135.0297088623047	561.4921264648439	133.2260437011719	-139.0856323242188	599.4499511718751	85.63069915771486	-93.64170074462892	559.8089599609376	141.2604675292969	-193.8672180175782	300.7315979003907	867.7544555664065	327.5230407714844	313.4636535644532	832.9550781250002	279.2049255371094	313.8910217285157	785.018005371094	344.5863647460938	339.6224365234376	753.0913696289064	299.9909667968751	352.7062377929688	506.3048095703126	702.4959716796876	347.9740905761719	456.4430236816407	683.0875854492189	354.7000427246094	459.6958923339845	731.8206787109376	366.9839172363282	408.2899475097657	708.9965820312501	420.3016967773439	426.6381835937501	856.550964355469	399.5833740234376	412.872772216797	897.4366455078127	457.1773681640626	414.7373657226564	884.5166015625002	476.9762268066407	206.5889434814454	820.6188964843752	372.8034362792969	223.5707092285157	871.8264160156252	
3	0.008333333333333333	520.0206298828126	1215.103149414063	309.5464782714844	409.4482727050782	1214.42919921875	303.2922363281251	593.1345214843751	1143.7392578125	128.5948944091797	367.1065979003907	1119.653686523438	114.6364059448242	663.3142089843751	858.617126464844	144.6641998291016	646.4530029296876	864.7255859375002	85.98032379150392	651.1666259765626	787.570251464844	99.82935333251956	623.7974243164064	791.7939453125002	47.96531295776368	588.5638427734376	342.9408569335938	79.17254638671876	598.9575195312501	339.4647216796876	18.22800827026368	583.4537353515626	291.0019226074219	52.46943283081056	581.0342407226564	289.3099975585938	-7.360175609588625	508.6733703613282	133.9200592041016	68.4114227294922	469.2710876464845	110.123275756836	47.95632553100587	529.2703857421876	90.51746368408205	58.96737670898439	475.3518981933595	141.7319946289063	-17.30349922180176	565.8806152343751	104.4125900268555	7.655580520629885	501.5562744140626	164.1246490478516	-63.87242507934572	505.740447998047	151.2116851806641	-97.23557281494143	559.0317382812501	161.3114166259766	-96.23258209228518	575.9264526367189	84.26266479492189	-39.86124801635743	503.3819580078126	131.5365295410157	-155.9315032958985	560.8571777343751	134.525131225586	-160.2531127929688	598.7146606445314	85.78820800781251	-115.9357070922852	558.9879760742189	143.9687194824219	-214.7659301757813	300.9753417968751	865.489685058594	311.3021240234376	314.0668640136719	831.0910644531252	262.9866943359376	314.0108947753907	782.572692871094	327.8492126464844	339.9895324707032	751.1661987304689	283.0079956054688	352.8977661132813	511.6319274902345	689.4750366210939	347.1635131835938	461.3472900390626	671.6359252929689	354.2202148437501	465.8912353515626	720.2307739257814	365.7415771484376	413.7803955078126	698.6287231445314	419.8356323242189	435.7054443359376	845.5095214843752	399.6987609863282	422.9578857421876	887.1846923828127	456.9795532226564	424.3848266601564	873.5329589843752	475.5430297851564	214.7276458740235	814.404968261719	372.0902709960938	233.3970794677735	866.3122558593752	
4	0.0125	520.3575439453126	1213.689575195313	295.7005920410157	409.7375793457032	1213.209716796875	289.3840637207032	593.0272827148439	1141.734008789063	114.9446258544922	366.7216186523438	1119.293579101563	100.6168594360352	663.7961425781251	855.6140136718752	133.3637237548828	646.3159179687501	861.148864746094	74.76889801025392	651.2044067382814	784.1617431640627	89.37834930419923	623.3065185546876	787.8342895507815	37.76612091064454	588.8866577148439	340.0251770019532	62.54791641235353	598.8123168945314	337.6410217285157	1.492180228233338	583.6151733398439	288.4018554687501	35.08207702636719	580.7538452148439	287.9535827636719	-24.84659957885743	509.4092407226564	131.1134643554688	48.75537872314455	469.783172607422	107.6237258911133	28.07133865356446	529.8353881835939	87.72905731201173	38.26909637451173	475.4685974121095	140.0674591064453	-36.96829986572266	566.0681152343751	102.4510116577149	-13.06575679779053	501.0509643554689	163.7407684326172	-82.89585113525392	505.1701049804689	151.138656616211	-116.7133178710938	558.4897460937501	161.26318359375	-115.886703491211	575.7155761718751	83.18041992187501	-61.01244735717775	502.2574768066407	132.4534454345703	-175.6245880126953	559.7485961914064	135.5332641601563	-180.3599548339844	597.9194946289064	85.95043945312501	-137.2206268310547	557.4326171875001	146.1542663574219	-234.5699768066407	301.1222839355469	863.0189208984377	295.1540222167969	314.5632324218751	829.0618896484377	246.5084838867188	313.9989318847657	779.9465942382815	310.9961547851563	340.2897338867188	748.9838256835939	265.8872375488282	352.8154602050782	516.9841308593751	676.0435180664064	346.3132324218751	466.283416748047	659.6590576171876	353.6566772460938	472.1671142578126	708.1749877929689	364.4354248046876	419.2512207031251	687.9822387695314	419.4479064941407	444.8107299804689	833.9548339843752	399.6905822753907	433.1998596191407	876.2025146484377	456.8208007812501	434.0501708984376	861.8649902343752	473.9407348632814	222.9196777343751	807.7431640625002	371.3043212890626	243.2840728759766	860.336853027344	
5	0.01666666666666667	520.7537231445314	1211.86328125	281.9765930175782	410.1226501464845	1211.670654296875	275.5876464843751	592.8699951171876	1139.512573242188	101.4276504516602	366.3202209472657	1118.840698242188	86.46615600585939	664.2692260742189	852.7151489257815	121.9811096191407	646.4023437500001	857.702087402344	63.48925781250001	651.2713012695314	780.9004516601565	78.77010345458986	623.0477294921876	784.1269531250002	27.29651069641114	589.0177001953126	337.3116455078126	46.38797760009766	598.6197509765626	335.7912292480469	-14.71851253509522	583.7162475585939	286.0268554687501	18.20884895324707	580.4891357421876	286.4234924316407	-41.67272949218751	510.4549865722657	128.2342529296875	30.06789207458497	470.642303466797	104.9552307128907	9.532821655273439	530.8716430664064	85.1356887817383	18.74609184265137	475.4393310546876	138.3215637207032	-55.06188964843751	566.4868774414064	100.6959304809571	-32.74905395507813	500.6314086914064	162.5287780761719	-100.9992065429688	504.2921752929689	150.7256011962891	-135.0061798095703	557.3857421875001	160.7776336669922	-134.6365814208985	575.6493530273439	82.07703399658205	-81.0685272216797	500.6666259765626	132.7813873291016	-194.0721130371094	558.1416625976564	136.0998840332032	-199.4926452636719	597.0407104492189	86.08552551269533	-157.428939819336	555.2020874023439	147.8080749511719	-253.3536834716797	301.0479736328126	860.299987792969	278.9888916015626	314.6826171875001	826.9177856445315	230.037826538086	313.8033142089844	777.1517333984377	294.0137023925782	340.3268432617188	746.5537719726564	248.7943725585938	352.6396484375001	522.0411376953126	662.0086059570314	345.4548950195313	470.9861755371095	647.2083740234376	353.1825561523438	477.8422851562501	696.2381591796876	363.2274169921876	424.7484130859376	676.6862792968751	419.1162109375001	453.9207458496095	821.8696899414065	399.7402648925782	443.3874511718751	864.5613403320315	456.7423400878907	443.7626953125001	849.6854248046877	472.4853820800782	231.3129577636719	800.527526855469	370.3379211425782	253.2668457031251	853.7932128906252	
